<svg xmlns="http://www.w3.org/2000/svg" xmlns:xlink="http://www.w3.org/1999/xlink" width="500" zoomAndPan="magnify" viewBox="0 0 375 374.999991" height="500" preserveAspectRatio="xMidYMid meet" version="1.0"><defs><g/><clipPath id="9c7578fa14"><path d="M 135 118.816406 L 202 118.816406 L 202 187 L 135 187 Z M 135 118.816406 " clip-rule="nonzero"/></clipPath><clipPath id="347816eedf"><path d="M 186 118.816406 L 232 118.816406 L 232 166 L 186 166 Z M 186 118.816406 " clip-rule="nonzero"/></clipPath><clipPath id="6fae5e2b23"><path d="M 124.671875 187 L 250.671875 187 L 250.671875 198.316406 L 124.671875 198.316406 Z M 124.671875 187 " clip-rule="nonzero"/></clipPath></defs><path fill="#234a6e" d="M 244.273438 164.242188 C 244.273438 164.242188 243.746094 164.222656 242.851562 164.078125 C 242.761719 164.058594 242.703125 164.039062 242.613281 164.019531 C 241.738281 163.894531 240.609375 163.785156 239.273438 163.835938 C 238.542969 163.875 237.742188 163.925781 236.902344 164.019531 C 236.046875 164.078125 235.152344 164.167969 234.222656 164.273438 C 233.453125 164.363281 232.65625 164.460938 231.835938 164.546875 C 231.105469 164.617188 230.335938 164.714844 229.59375 164.78125 C 229.191406 164.839844 228.792969 164.890625 228.371094 164.929688 C 227.71875 164.988281 227.039062 165.039062 226.367188 165.09375 L 225.597656 165.152344 C 225.488281 165.152344 225.378906 165.171875 225.265625 165.171875 C 224.226562 165.207031 223.222656 165.207031 222.21875 165.152344 C 221.214844 165.113281 220.265625 164.96875 219.332031 164.820312 C 218.417969 164.65625 217.578125 164.421875 216.796875 164.167969 C 216.011719 163.914062 215.335938 163.582031 214.753906 163.234375 C 214.402344 163.03125 214.097656 162.8125 213.839844 162.589844 C 213.652344 162.445312 213.488281 162.300781 213.363281 162.152344 C 213.011719 161.824219 212.816406 161.460938 212.71875 161.238281 C 212.632812 161.074219 212.613281 160.945312 212.613281 160.890625 C 212.683594 160.976562 213.050781 161.328125 213.761719 161.582031 C 214.035156 161.707031 214.367188 161.796875 214.746094 161.894531 C 214.894531 161.929688 215.058594 161.960938 215.222656 162 C 215.808594 162.089844 216.460938 162.164062 217.191406 162.203125 C 217.921875 162.242188 218.703125 162.222656 219.550781 162.222656 C 220.386719 162.183594 221.265625 162.152344 222.199219 162.078125 C 223.113281 162.007812 224.058594 161.875 225.023438 161.804688 C 225.210938 161.785156 225.40625 161.765625 225.589844 161.726562 C 225.84375 161.707031 226.097656 161.671875 226.359375 161.65625 C 226.90625 161.585938 227.453125 161.53125 228.003906 161.472656 C 228.53125 161.417969 229.066406 161.367188 229.59375 161.328125 C 230.089844 161.289062 230.597656 161.257812 231.089844 161.238281 C 231.347656 161.21875 231.601562 161.21875 231.839844 161.21875 C 232.609375 161.179688 233.351562 161.164062 234.101562 161.179688 C 236.070312 161.238281 237.933594 161.433594 239.503906 161.835938 C 240.449219 162.070312 241.292969 162.382812 241.949219 162.730469 C 242.40625 162.964844 242.785156 163.207031 243.097656 163.40625 C 243.847656 163.933594 244.273438 164.242188 244.273438 164.242188 Z M 244.273438 164.242188 " fill-opacity="1" fill-rule="nonzero"/><path fill="#234a6e" d="M 247.171875 173.5 C 247.171875 173.5 246.546875 173.441406 245.492188 173.246094 C 245.386719 173.207031 245.257812 173.1875 245.128906 173.15625 L 245.113281 173.15625 C 244.109375 172.992188 242.8125 172.824219 241.28125 172.863281 C 240.40625 172.863281 239.457031 172.921875 238.453125 173.007812 C 237.449219 173.066406 236.371094 173.15625 235.277344 173.28125 C 234.167969 173.390625 232.996094 173.519531 231.828125 173.644531 C 231.078125 173.722656 230.328125 173.789062 229.585938 173.878906 C 229.167969 173.917969 228.730469 173.96875 228.308594 174.007812 C 227.667969 174.078125 227.011719 174.132812 226.359375 174.171875 C 226.105469 174.210938 225.851562 174.230469 225.589844 174.242188 C 225.277344 174.242188 224.96875 174.28125 224.675781 174.300781 C 224.054688 174.335938 223.457031 174.335938 222.851562 174.335938 C 222.25 174.335938 221.644531 174.335938 221.0625 174.300781 C 219.910156 174.242188 218.761719 174.113281 217.679688 173.949219 C 217.152344 173.839844 216.621094 173.746094 216.132812 173.636719 C 215.636719 173.53125 215.148438 173.367188 214.691406 173.238281 C 214.25 173.09375 213.792969 172.925781 213.414062 172.742188 C 212.992188 172.578125 212.625 172.378906 212.28125 172.195312 C 211.863281 171.960938 211.496094 171.699219 211.171875 171.464844 C 210.96875 171.300781 210.789062 171.15625 210.644531 170.988281 C 210.222656 170.609375 209.988281 170.203125 209.84375 169.949219 C 209.753906 169.746094 209.714844 169.617188 209.714844 169.546875 C 209.804688 169.636719 210.210938 170.074219 211.03125 170.425781 C 211.339844 170.570312 211.722656 170.695312 212.160156 170.804688 C 212.34375 170.863281 212.5625 170.914062 212.765625 170.96875 C 213.457031 171.117188 214.246094 171.207031 215.101562 171.28125 C 215.960938 171.351562 216.90625 171.351562 217.910156 171.351562 C 218.914062 171.3125 219.957031 171.292969 221.046875 171.207031 C 222.140625 171.148438 223.277344 171.019531 224.429688 170.933594 C 224.828125 170.894531 225.214844 170.855469 225.597656 170.804688 C 225.851562 170.765625 226.105469 170.75 226.367188 170.714844 C 226.894531 170.660156 227.425781 170.609375 227.972656 170.550781 C 228.5 170.492188 229.050781 170.441406 229.597656 170.40625 C 230.273438 170.347656 230.933594 170.296875 231.605469 170.257812 L 231.839844 170.257812 C 232.972656 170.203125 234.070312 170.171875 235.144531 170.183594 C 237.480469 170.222656 239.65625 170.417969 241.515625 170.855469 C 242.628906 171.109375 243.613281 171.460938 244.398438 171.839844 C 244.945312 172.09375 245.402344 172.347656 245.765625 172.589844 C 246.660156 173.167969 247.171875 173.5 247.171875 173.5 Z M 247.171875 173.5 " fill-opacity="1" fill-rule="nonzero"/><path fill="#234a6e" d="M 244.273438 182.152344 C 244.273438 182.152344 243.746094 182.132812 242.851562 181.984375 C 242.761719 181.964844 242.703125 181.949219 242.613281 181.929688 C 241.738281 181.800781 240.609375 181.695312 239.273438 181.746094 C 238.542969 181.78125 237.742188 181.832031 236.902344 181.929688 C 236.046875 181.984375 235.152344 182.09375 234.222656 182.183594 C 233.453125 182.273438 232.65625 182.367188 231.835938 182.457031 C 231.105469 182.542969 230.335938 182.621094 229.59375 182.710938 C 229.191406 182.746094 228.792969 182.800781 228.371094 182.835938 C 227.71875 182.894531 227.039062 182.945312 226.367188 183.003906 L 225.597656 183.058594 C 225.488281 183.078125 225.378906 183.078125 225.265625 183.078125 C 224.226562 183.117188 223.222656 183.136719 222.21875 183.058594 C 221.214844 183.019531 220.265625 182.875 219.332031 182.730469 C 218.417969 182.5625 217.578125 182.347656 216.796875 182.074219 C 216.011719 181.820312 215.335938 181.488281 214.753906 181.140625 C 214.402344 180.9375 214.097656 180.742188 213.839844 180.5 C 213.652344 180.351562 213.488281 180.207031 213.363281 180.0625 C 213.011719 179.730469 212.816406 179.367188 212.71875 179.144531 C 212.632812 178.980469 212.613281 178.855469 212.613281 178.796875 C 212.683594 178.886719 213.050781 179.234375 213.761719 179.488281 C 214.015625 179.617188 214.347656 179.707031 214.707031 179.78125 C 214.875 179.839844 215.039062 179.871094 215.214844 179.910156 C 215.800781 179.996094 216.457031 180.074219 217.1875 180.125 C 217.917969 180.164062 218.699219 180.125 219.542969 180.125 C 220.382812 180.085938 221.257812 180.054688 222.191406 179.976562 C 223.105469 179.921875 224.054688 179.773438 225.019531 179.707031 C 225.203125 179.6875 225.398438 179.667969 225.585938 179.636719 C 225.839844 179.617188 226.09375 179.578125 226.351562 179.558594 C 226.898438 179.488281 227.445312 179.433594 227.996094 179.375 C 228.523438 179.316406 229.058594 179.285156 229.585938 179.230469 C 230.082031 179.191406 230.589844 179.160156 231.085938 179.140625 C 231.339844 179.121094 231.59375 179.121094 231.835938 179.121094 C 232.605469 179.082031 233.347656 179.0625 234.097656 179.101562 C 236.066406 179.140625 237.925781 179.335938 239.496094 179.757812 C 240.441406 179.972656 241.289062 180.300781 241.941406 180.632812 C 242.398438 180.867188 242.78125 181.109375 243.089844 181.324219 C 243.847656 181.839844 244.273438 182.152344 244.273438 182.152344 Z M 244.273438 182.152344 " fill-opacity="1" fill-rule="nonzero"/><g clip-path="url(#9c7578fa14)"><path fill="#234a6e" d="M 201.925781 152.121094 L 201.925781 185.671875 L 199.902344 185.582031 L 198.078125 185.523438 C 197.53125 185.503906 196.996094 185.484375 196.453125 185.46875 L 196.453125 154.390625 L 186.140625 144.097656 L 183.570312 141.507812 L 179.699219 137.632812 L 177.109375 135.058594 L 168.621094 126.554688 L 140.785156 154.390625 L 140.785156 186.058594 L 136.769531 186.292969 L 135.308594 186.402344 L 135.308594 152.121094 L 168.621094 118.816406 L 180.976562 131.191406 L 183.570312 133.765625 L 187.4375 137.632812 L 190.011719 140.222656 Z M 201.925781 152.121094 " fill-opacity="1" fill-rule="nonzero"/></g><g clip-path="url(#347816eedf)"><path fill="#234a6e" d="M 231.820312 152.121094 L 231.820312 164.554688 C 231.089844 164.625 230.324219 164.71875 229.578125 164.789062 C 229.179688 164.847656 228.78125 164.898438 228.359375 164.933594 C 227.707031 164.992188 227.027344 165.042969 226.351562 165.101562 L 226.351562 154.390625 L 198.523438 126.558594 L 190.035156 135.046875 L 186.167969 131.179688 L 198.515625 118.816406 Z M 231.820312 152.121094 " fill-opacity="1" fill-rule="nonzero"/></g><path fill="#234a6e" d="M 231.820312 170.265625 L 231.820312 173.644531 C 231.074219 173.722656 230.324219 173.789062 229.578125 173.878906 C 229.160156 173.917969 228.722656 173.96875 228.304688 174.007812 C 227.660156 174.078125 227.007812 174.132812 226.351562 174.171875 L 226.351562 170.722656 C 226.878906 170.664062 227.414062 170.613281 227.960938 170.558594 C 228.488281 170.5 229.039062 170.449219 229.585938 170.410156 C 230.257812 170.355469 230.921875 170.304688 231.59375 170.265625 Z M 231.820312 170.265625 " fill-opacity="1" fill-rule="nonzero"/><path fill="#234a6e" d="M 231.074219 179.152344 C 231.328125 179.132812 231.582031 179.132812 231.820312 179.132812 L 231.820312 188.597656 L 231.148438 188.527344 L 226.347656 188.128906 L 226.347656 179.578125 C 226.894531 179.507812 227.4375 179.449219 227.992188 179.394531 C 228.519531 179.335938 229.050781 179.304688 229.578125 179.246094 C 230.070312 179.210938 230.582031 179.171875 231.074219 179.152344 Z M 231.074219 179.152344 " fill-opacity="1" fill-rule="nonzero"/><path fill="#234a6e" d="M 179.953125 150.597656 C 178.757812 149.5 177.46875 148.519531 176.089844 147.667969 C 174.191406 146.476562 172.164062 145.527344 170.023438 144.875 C 171.25 145.269531 172.527344 147.625 172.953125 148.703125 C 173.753906 150.6875 173.785156 152.941406 173.277344 155 C 172.558594 157.863281 170.871094 160.398438 168.957031 162.640625 C 168.398438 163.296875 167.828125 163.949219 167.253906 164.625 C 165.601562 166.554688 164.066406 168.582031 163.652344 171.035156 C 163.0625 174.585938 165.160156 178.199219 168.136719 180.214844 C 168.304688 180.328125 168.480469 180.421875 168.644531 180.542969 C 171.855469 182.457031 175.925781 182.851562 179.445312 181.542969 C 185.105469 179.433594 188.707031 172.855469 188.472656 166.980469 C 188.230469 160.660156 184.535156 154.734375 179.953125 150.597656 Z M 179.953125 150.597656 " fill-opacity="1" fill-rule="nonzero"/><path fill="#ed1c24" d="M 160.417969 170.507812 C 161.042969 166.757812 163.429688 164.027344 165.519531 161.625 C 165.851562 161.25 166.15625 160.890625 166.46875 160.527344 C 168.449219 158.171875 169.605469 156.15625 170.101562 154.210938 C 170.476562 152.675781 170.414062 151.152344 169.921875 149.910156 C 169.675781 149.308594 169.238281 148.585938 168.925781 148.144531 C 168.90625 148.125 168.90625 148.125 168.894531 148.113281 C 168.796875 148 168.714844 147.90625 168.613281 147.804688 C 167.078125 146.121094 164.242188 144.5625 164.242188 144.5625 C 165.210938 150.78125 163.703125 153.902344 161.253906 153.972656 C 158.800781 154.054688 158.582031 150.503906 158.582031 150.503906 C 158.582031 150.503906 156.410156 152.828125 155.457031 156.765625 C 154.511719 160.722656 156.945312 166.320312 155.117188 166.988281 C 153.285156 167.671875 152.125 163.976562 152.125 163.976562 C 152.125 163.976562 150.210938 168.214844 153.347656 175.316406 C 156.476562 182.398438 167.089844 183.394531 167.089844 183.394531 C 166.828125 183.25 166.570312 183.085938 166.320312 182.917969 C 162.039062 180.042969 159.664062 175.054688 160.417969 170.507812 Z M 160.417969 170.507812 " fill-opacity="1" fill-rule="nonzero"/><g clip-path="url(#6fae5e2b23)"><path fill="#234a6e" d="M 250.296875 194.578125 L 250.269531 194.816406 C 241.535156 193.914062 232.808594 193.292969 224.058594 192.886719 L 219.929688 192.726562 L 219.808594 192.726562 L 213.394531 192.539062 L 206.988281 192.441406 L 200.546875 192.421875 L 194.121094 192.472656 L 187.703125 192.621094 L 181.484375 192.828125 L 181.300781 192.847656 L 179.363281 192.929688 C 177 193.027344 174.628906 193.140625 172.28125 193.285156 C 167.878906 193.558594 163.480469 193.898438 159.105469 194.296875 C 148.648438 195.261719 138.242188 196.597656 127.835938 198.203125 C 126.414062 198.445312 125.09375 197.207031 124.898438 195.453125 C 124.699219 193.6875 125.710938 192.0625 127.144531 191.820312 C 127.15625 191.820312 127.15625 191.820312 127.15625 191.820312 L 133.890625 190.757812 L 140.636719 189.855469 L 144.011719 189.457031 L 147.398438 189.101562 L 150.820312 188.777344 L 154.15625 188.472656 L 154.746094 188.421875 L 157.542969 188.230469 L 160.929688 188.019531 L 167.6875 187.714844 L 174.457031 187.507812 L 175.050781 187.507812 C 175.804688 187.488281 176.566406 187.488281 177.324219 187.472656 L 181.21875 187.421875 L 183.777344 187.441406 C 185.621094 187.460938 187.460938 187.492188 189.292969 187.539062 L 190.167969 187.558594 L 190.980469 187.574219 C 193.242188 187.640625 195.503906 187.703125 197.777344 187.816406 L 199.085938 187.867188 L 203.546875 188.109375 L 204.761719 188.191406 C 204.863281 188.191406 204.957031 188.191406 205.046875 188.210938 C 205.21875 188.230469 205.371094 188.242188 205.527344 188.242188 L 208 188.421875 L 212.445312 188.789062 L 216.03125 189.113281 L 216.894531 189.195312 L 219.949219 189.519531 L 221.335938 189.664062 L 225.769531 190.230469 C 228.746094 190.617188 231.675781 191.019531 234.628906 191.5 C 237.175781 191.921875 239.726562 192.386719 242.265625 192.867188 C 242.367188 192.898438 242.460938 192.898438 242.550781 192.917969 C 242.652344 192.949219 242.75 192.96875 242.851562 192.980469 C 243.046875 193.03125 243.242188 193.066406 243.453125 193.097656 C 244.195312 193.242188 244.933594 193.421875 245.675781 193.578125 C 247.207031 193.882812 248.75 194.21875 250.296875 194.578125 Z M 250.296875 194.578125 " fill-opacity="1" fill-rule="nonzero"/></g><g fill="#234a6e" fill-opacity="1"><g transform="translate(146.833064, 232.619761)"><g><path d="M 11.71875 0.359375 C 9.84375 0.359375 8 0.0351562 6.1875 -0.609375 C 4.382812 -1.253906 2.742188 -2.25 1.265625 -3.59375 L 4.46875 -7.421875 C 5.59375 -6.503906 6.742188 -5.773438 7.921875 -5.234375 C 9.109375 -4.703125 10.40625 -4.4375 11.8125 -4.4375 C 12.9375 -4.4375 13.8125 -4.640625 14.4375 -5.046875 C 15.0625 -5.453125 15.375 -6.019531 15.375 -6.75 L 15.375 -6.828125 C 15.375 -7.171875 15.304688 -7.476562 15.171875 -7.75 C 15.046875 -8.019531 14.800781 -8.269531 14.4375 -8.5 C 14.070312 -8.738281 13.566406 -8.972656 12.921875 -9.203125 C 12.273438 -9.441406 11.4375 -9.691406 10.40625 -9.953125 C 9.164062 -10.253906 8.039062 -10.59375 7.03125 -10.96875 C 6.019531 -11.34375 5.160156 -11.804688 4.453125 -12.359375 C 3.753906 -12.910156 3.210938 -13.597656 2.828125 -14.421875 C 2.441406 -15.242188 2.25 -16.265625 2.25 -17.484375 L 2.25 -17.546875 C 2.25 -18.671875 2.457031 -19.6875 2.875 -20.59375 C 3.300781 -21.5 3.894531 -22.28125 4.65625 -22.9375 C 5.414062 -23.59375 6.320312 -24.09375 7.375 -24.4375 C 8.4375 -24.789062 9.601562 -24.96875 10.875 -24.96875 C 12.675781 -24.96875 14.332031 -24.695312 15.84375 -24.15625 C 17.351562 -23.625 18.742188 -22.851562 20.015625 -21.84375 L 17.203125 -17.765625 C 16.097656 -18.515625 15.015625 -19.101562 13.953125 -19.53125 C 12.898438 -19.96875 11.847656 -20.1875 10.796875 -20.1875 C 9.742188 -20.1875 8.953125 -19.976562 8.421875 -19.5625 C 7.890625 -19.15625 7.625 -18.648438 7.625 -18.046875 L 7.625 -17.96875 C 7.625 -17.570312 7.703125 -17.226562 7.859375 -16.9375 C 8.015625 -16.644531 8.289062 -16.378906 8.6875 -16.140625 C 9.082031 -15.910156 9.625 -15.6875 10.3125 -15.46875 C 11.007812 -15.257812 11.882812 -15.015625 12.9375 -14.734375 C 14.1875 -14.410156 15.296875 -14.039062 16.265625 -13.625 C 17.242188 -13.21875 18.066406 -12.726562 18.734375 -12.15625 C 19.398438 -11.582031 19.898438 -10.90625 20.234375 -10.125 C 20.578125 -9.351562 20.75 -8.425781 20.75 -7.34375 L 20.75 -7.28125 C 20.75 -6.0625 20.523438 -4.976562 20.078125 -4.03125 C 19.640625 -3.082031 19.019531 -2.285156 18.21875 -1.640625 C 17.414062 -0.992188 16.460938 -0.5 15.359375 -0.15625 C 14.265625 0.1875 13.050781 0.359375 11.71875 0.359375 Z M 11.71875 0.359375 "/></g></g></g><g fill="#234a6e" fill-opacity="1"><g transform="translate(172.148544, 232.619761)"><g><path d="M 2.953125 -24.625 L 14.203125 -24.625 C 17.328125 -24.625 19.722656 -23.789062 21.390625 -22.125 C 22.796875 -20.71875 23.5 -18.84375 23.5 -16.5 L 23.5 -16.421875 C 23.5 -14.429688 23.007812 -12.804688 22.03125 -11.546875 C 21.0625 -10.296875 19.789062 -9.378906 18.21875 -8.796875 L 24.234375 0 L 17.90625 0 L 12.625 -7.875 L 8.375 -7.875 L 8.375 0 L 2.953125 0 Z M 13.859375 -12.65625 C 15.191406 -12.65625 16.21875 -12.972656 16.9375 -13.609375 C 17.65625 -14.242188 18.015625 -15.085938 18.015625 -16.140625 L 18.015625 -16.21875 C 18.015625 -17.382812 17.632812 -18.257812 16.875 -18.84375 C 16.125 -19.4375 15.082031 -19.734375 13.75 -19.734375 L 8.375 -19.734375 L 8.375 -12.65625 Z M 13.859375 -12.65625 "/></g></g></g><g fill="#234a6e" fill-opacity="1"><g transform="translate(200.382202, 232.619761)"><g><path d="M 11.390625 -24.796875 L 16.390625 -24.796875 L 26.9375 0 L 21.28125 0 L 19.03125 -5.515625 L 8.609375 -5.515625 L 6.359375 0 L 0.84375 0 Z M 17.09375 -10.3125 L 13.828125 -18.296875 L 10.546875 -10.3125 Z M 17.09375 -10.3125 "/></g></g></g><g fill="#ed1c24" fill-opacity="1"><g transform="translate(142.750291, 249.778409)"><g><path d="M 0.875 -7.328125 L 6.40625 -7.328125 L 6.40625 -5.890625 L 2.484375 -5.890625 L 2.484375 -4.40625 L 5.9375 -4.40625 L 5.9375 -2.96875 L 2.484375 -2.96875 L 2.484375 -1.4375 L 6.453125 -1.4375 L 6.453125 0 L 0.875 0 Z M 0.875 -7.328125 "/></g></g></g><g fill="#ed1c24" fill-opacity="1"><g transform="translate(151.025352, 249.778409)"><g><path d="M 0.875 -7.328125 L 2.359375 -7.328125 L 5.796875 -2.8125 L 5.796875 -7.328125 L 7.390625 -7.328125 L 7.390625 0 L 6.015625 0 L 2.46875 -4.65625 L 2.46875 0 L 0.875 0 Z M 0.875 -7.328125 "/></g></g></g><g fill="#ed1c24" fill-opacity="1"><g transform="translate(160.557265, 249.778409)"><g><path d="M 4.40625 0.125 C 3.832031 0.125 3.3125 0.03125 2.84375 -0.15625 C 2.375 -0.34375 1.96875 -0.601562 1.625 -0.9375 C 1.289062 -1.269531 1.03125 -1.664062 0.84375 -2.125 C 0.65625 -2.59375 0.5625 -3.097656 0.5625 -3.640625 L 0.5625 -3.65625 C 0.5625 -4.1875 0.65625 -4.679688 0.84375 -5.140625 C 1.03125 -5.597656 1.296875 -6 1.640625 -6.34375 C 1.984375 -6.6875 2.390625 -6.957031 2.859375 -7.15625 C 3.328125 -7.351562 3.835938 -7.453125 4.390625 -7.453125 C 4.722656 -7.453125 5.019531 -7.425781 5.28125 -7.375 C 5.550781 -7.332031 5.800781 -7.269531 6.03125 -7.1875 C 6.269531 -7.101562 6.488281 -7 6.6875 -6.875 C 6.894531 -6.75 7.09375 -6.609375 7.28125 -6.453125 L 6.265625 -5.21875 C 6.117188 -5.34375 5.972656 -5.445312 5.828125 -5.53125 C 5.691406 -5.625 5.550781 -5.703125 5.40625 -5.765625 C 5.257812 -5.828125 5.097656 -5.875 4.921875 -5.90625 C 4.742188 -5.945312 4.550781 -5.96875 4.34375 -5.96875 C 4.050781 -5.96875 3.773438 -5.90625 3.515625 -5.78125 C 3.265625 -5.65625 3.039062 -5.488281 2.84375 -5.28125 C 2.65625 -5.082031 2.503906 -4.84375 2.390625 -4.5625 C 2.285156 -4.289062 2.234375 -4 2.234375 -3.6875 L 2.234375 -3.65625 C 2.234375 -3.320312 2.285156 -3.015625 2.390625 -2.734375 C 2.503906 -2.453125 2.660156 -2.207031 2.859375 -2 C 3.054688 -1.789062 3.289062 -1.628906 3.5625 -1.515625 C 3.832031 -1.398438 4.128906 -1.34375 4.453125 -1.34375 C 5.054688 -1.34375 5.566406 -1.488281 5.984375 -1.78125 L 5.984375 -2.828125 L 4.359375 -2.828125 L 4.359375 -4.21875 L 7.53125 -4.21875 L 7.53125 -1.03125 C 7.15625 -0.71875 6.707031 -0.445312 6.1875 -0.21875 C 5.664062 0.0078125 5.070312 0.125 4.40625 0.125 Z M 4.40625 0.125 "/></g></g></g><g fill="#ed1c24" fill-opacity="1"><g transform="translate(170.026341, 249.778409)"><g><path d="M 0.953125 -7.328125 L 2.5625 -7.328125 L 2.5625 0 L 0.953125 0 Z M 0.953125 -7.328125 "/></g></g></g><g fill="#ed1c24" fill-opacity="1"><g transform="translate(174.803162, 249.778409)"><g><path d="M 0.875 -7.328125 L 2.359375 -7.328125 L 5.796875 -2.8125 L 5.796875 -7.328125 L 7.390625 -7.328125 L 7.390625 0 L 6.015625 0 L 2.46875 -4.65625 L 2.46875 0 L 0.875 0 Z M 0.875 -7.328125 "/></g></g></g><g fill="#ed1c24" fill-opacity="1"><g transform="translate(184.335076, 249.778409)"><g><path d="M 0.875 -7.328125 L 6.40625 -7.328125 L 6.40625 -5.890625 L 2.484375 -5.890625 L 2.484375 -4.40625 L 5.9375 -4.40625 L 5.9375 -2.96875 L 2.484375 -2.96875 L 2.484375 -1.4375 L 6.453125 -1.4375 L 6.453125 0 L 0.875 0 Z M 0.875 -7.328125 "/></g></g></g><g fill="#ed1c24" fill-opacity="1"><g transform="translate(192.610135, 249.778409)"><g><path d="M 0.875 -7.328125 L 6.40625 -7.328125 L 6.40625 -5.890625 L 2.484375 -5.890625 L 2.484375 -4.40625 L 5.9375 -4.40625 L 5.9375 -2.96875 L 2.484375 -2.96875 L 2.484375 -1.4375 L 6.453125 -1.4375 L 6.453125 0 L 0.875 0 Z M 0.875 -7.328125 "/></g></g></g><g fill="#ed1c24" fill-opacity="1"><g transform="translate(200.885195, 249.778409)"><g><path d="M 0.875 -7.328125 L 4.234375 -7.328125 C 5.160156 -7.328125 5.867188 -7.078125 6.359375 -6.578125 C 6.785156 -6.160156 7 -5.601562 7 -4.90625 L 7 -4.890625 C 7 -4.296875 6.851562 -3.8125 6.5625 -3.4375 C 6.269531 -3.0625 5.890625 -2.785156 5.421875 -2.609375 L 7.21875 0 L 5.328125 0 L 3.765625 -2.34375 L 2.484375 -2.34375 L 2.484375 0 L 0.875 0 Z M 4.125 -3.765625 C 4.519531 -3.765625 4.820312 -3.859375 5.03125 -4.046875 C 5.25 -4.234375 5.359375 -4.488281 5.359375 -4.8125 L 5.359375 -4.828125 C 5.359375 -5.171875 5.242188 -5.429688 5.015625 -5.609375 C 4.796875 -5.785156 4.488281 -5.875 4.09375 -5.875 L 2.484375 -5.875 L 2.484375 -3.765625 Z M 4.125 -3.765625 "/></g></g></g><g fill="#ed1c24" fill-opacity="1"><g transform="translate(209.71536, 249.778409)"><g><path d="M 0.953125 -7.328125 L 2.5625 -7.328125 L 2.5625 0 L 0.953125 0 Z M 0.953125 -7.328125 "/></g></g></g><g fill="#ed1c24" fill-opacity="1"><g transform="translate(214.492179, 249.778409)"><g><path d="M 0.875 -7.328125 L 2.359375 -7.328125 L 5.796875 -2.8125 L 5.796875 -7.328125 L 7.390625 -7.328125 L 7.390625 0 L 6.015625 0 L 2.46875 -4.65625 L 2.46875 0 L 0.875 0 Z M 0.875 -7.328125 "/></g></g></g><g fill="#ed1c24" fill-opacity="1"><g transform="translate(224.02409, 249.778409)"><g><path d="M 4.40625 0.125 C 3.832031 0.125 3.3125 0.03125 2.84375 -0.15625 C 2.375 -0.34375 1.96875 -0.601562 1.625 -0.9375 C 1.289062 -1.269531 1.03125 -1.664062 0.84375 -2.125 C 0.65625 -2.59375 0.5625 -3.097656 0.5625 -3.640625 L 0.5625 -3.65625 C 0.5625 -4.1875 0.65625 -4.679688 0.84375 -5.140625 C 1.03125 -5.597656 1.296875 -6 1.640625 -6.34375 C 1.984375 -6.6875 2.390625 -6.957031 2.859375 -7.15625 C 3.328125 -7.351562 3.835938 -7.453125 4.390625 -7.453125 C 4.722656 -7.453125 5.019531 -7.425781 5.28125 -7.375 C 5.550781 -7.332031 5.800781 -7.269531 6.03125 -7.1875 C 6.269531 -7.101562 6.488281 -7 6.6875 -6.875 C 6.894531 -6.75 7.09375 -6.609375 7.28125 -6.453125 L 6.265625 -5.21875 C 6.117188 -5.34375 5.972656 -5.445312 5.828125 -5.53125 C 5.691406 -5.625 5.550781 -5.703125 5.40625 -5.765625 C 5.257812 -5.828125 5.097656 -5.875 4.921875 -5.90625 C 4.742188 -5.945312 4.550781 -5.96875 4.34375 -5.96875 C 4.050781 -5.96875 3.773438 -5.90625 3.515625 -5.78125 C 3.265625 -5.65625 3.039062 -5.488281 2.84375 -5.28125 C 2.65625 -5.082031 2.503906 -4.84375 2.390625 -4.5625 C 2.285156 -4.289062 2.234375 -4 2.234375 -3.6875 L 2.234375 -3.65625 C 2.234375 -3.320312 2.285156 -3.015625 2.390625 -2.734375 C 2.503906 -2.453125 2.660156 -2.207031 2.859375 -2 C 3.054688 -1.789062 3.289062 -1.628906 3.5625 -1.515625 C 3.832031 -1.398438 4.128906 -1.34375 4.453125 -1.34375 C 5.054688 -1.34375 5.566406 -1.488281 5.984375 -1.78125 L 5.984375 -2.828125 L 4.359375 -2.828125 L 4.359375 -4.21875 L 7.53125 -4.21875 L 7.53125 -1.03125 C 7.15625 -0.71875 6.707031 -0.445312 6.1875 -0.21875 C 5.664062 0.0078125 5.070312 0.125 4.40625 0.125 Z M 4.40625 0.125 "/></g></g></g></svg>